<svg xmlns="http://www.w3.org/2000/svg" xmlns:xlink="http://www.w3.org/1999/xlink" width="532" zoomAndPan="magnify" viewBox="0 0 398.88 242.999999" height="324" preserveAspectRatio="xMidYMid meet" version="1.0"><defs><clipPath id="2520455c3f"><path d="M 0 0.0351562 L 398.761719 0.0351562 L 398.761719 242.960938 L 0 242.960938 Z M 0 0.0351562 " clip-rule="nonzero"/></clipPath><clipPath id="95e6f5fbf2"><path d="M 0 85 L 90 85 L 90 184.789062 L 0 184.789062 Z M 0 85 " clip-rule="nonzero"/></clipPath><clipPath id="3909280b6b"><path d="M 61.382812 95.976562 L 155.773438 95.976562 L 155.773438 190.367188 L 61.382812 190.367188 Z M 61.382812 95.976562 " clip-rule="nonzero"/></clipPath><clipPath id="02b69e40a8"><path d="M 80.457031 55.753906 L 132.042969 55.753906 L 132.042969 80.996094 L 80.457031 80.996094 Z M 80.457031 55.753906 " clip-rule="nonzero"/></clipPath><clipPath id="4ce50a5666"><path d="M 172.753906 63.433594 L 266.046875 63.433594 L 266.046875 184.164062 L 172.753906 184.164062 Z M 172.753906 63.433594 " clip-rule="nonzero"/></clipPath><clipPath id="82f0737b59"><path d="M 300 85.355469 L 356 85.355469 L 356 183 L 300 183 Z M 300 85.355469 " clip-rule="nonzero"/></clipPath><clipPath id="7b52c0329e"><path d="M 250.09375 124 L 325.824219 124 L 325.824219 209 L 250.09375 209 Z M 250.09375 124 " clip-rule="nonzero"/></clipPath><clipPath id="2ab90465fe"><path d="M 330.484375 119.382812 L 398.53125 119.382812 L 398.53125 187.433594 L 330.484375 187.433594 Z M 330.484375 119.382812 " clip-rule="nonzero"/></clipPath></defs><g clip-path="url(#2520455c3f)"><path fill="#ffffff" d="M 0 0.0351562 L 398.878906 0.0351562 L 398.878906 242.964844 L 0 242.964844 Z M 0 0.0351562 " fill-opacity="1" fill-rule="nonzero"/><path fill="#ffffff" d="M 0 0.0351562 L 398.878906 0.0351562 L 398.878906 242.964844 L 0 242.964844 Z M 0 0.0351562 " fill-opacity="1" fill-rule="nonzero"/></g><g clip-path="url(#95e6f5fbf2)"><path fill="#6b4226" d="M 90.0625 86.003906 C 89.640625 85.410156 88.953125 85.054688 88.222656 85.054688 L 71.492188 85.054688 C 70.53125 85.054688 69.679688 85.660156 69.359375 86.5625 L 45.390625 155 L 45.316406 155 L 21.34375 86.5625 C 21.027344 85.660156 20.175781 85.054688 19.214844 85.054688 L 2.480469 85.054688 C 1.75 85.054688 1.066406 85.410156 0.644531 86.003906 C 0.21875 86.601562 0.109375 87.367188 0.351562 88.058594 L 33.546875 182.824219 C 33.863281 183.730469 34.714844 184.335938 35.675781 184.335938 L 55.03125 184.335938 C 55.988281 184.335938 56.84375 183.730469 57.160156 182.824219 L 90.355469 88.058594 C 90.59375 87.367188 90.488281 86.601562 90.0625 86.003906 Z M 90.0625 86.003906 " fill-opacity="1" fill-rule="nonzero"/></g><g clip-path="url(#3909280b6b)"><path fill="#e48a33" d="M 108.507812 95.976562 C 82.480469 95.976562 61.382812 117.074219 61.382812 143.105469 C 61.382812 169.132812 82.480469 190.230469 108.507812 190.230469 C 134.539062 190.230469 155.636719 169.132812 155.636719 143.105469 C 155.636719 117.074219 134.539062 95.976562 108.507812 95.976562 Z M 108.507812 169.265625 C 94.050781 169.265625 82.347656 157.542969 82.347656 143.105469 C 82.347656 128.667969 94.070312 116.941406 108.507812 116.941406 C 122.945312 116.941406 134.671875 128.667969 134.671875 143.105469 C 134.671875 157.542969 122.964844 169.265625 108.507812 169.265625 Z M 108.507812 169.265625 " fill-opacity="1" fill-rule="nonzero"/></g><g clip-path="url(#02b69e40a8)"><path fill="#005f73" d="M 106.320312 55.3125 C 109.789062 55.304688 113.125 55.976562 116.320312 57.332031 C 119.398438 58.632812 122.121094 60.46875 124.480469 62.835938 C 126.847656 65.195312 128.683594 67.917969 129.984375 70.996094 C 131.335938 74.191406 132.011719 77.527344 132.003906 80.996094 L 122.550781 80.996094 C 122.554688 78.84375 122.148438 76.769531 121.324219 74.78125 C 120.5 72.792969 119.324219 71.039062 117.796875 69.519531 C 117.421875 69.144531 117.027344 68.789062 116.617188 68.449219 C 116.207031 68.113281 115.777344 67.796875 115.335938 67.5 C 114.894531 67.207031 114.4375 66.933594 113.96875 66.683594 C 113.5 66.433594 113.023438 66.207031 112.53125 66.003906 C 112.039062 65.796875 111.539062 65.621094 111.03125 65.464844 C 110.523438 65.3125 110.007812 65.183594 109.484375 65.078125 C 108.964844 64.976562 108.441406 64.898438 107.910156 64.84375 C 107.382812 64.792969 106.851562 64.765625 106.320312 64.765625 C 105.789062 64.765625 105.257812 64.792969 104.730469 64.84375 C 104.199219 64.898438 103.675781 64.976562 103.152344 65.078125 C 102.632812 65.183594 102.117188 65.3125 101.609375 65.464844 C 101.101562 65.621094 100.601562 65.796875 100.109375 66.003906 C 99.617188 66.207031 99.136719 66.433594 98.667969 66.683594 C 98.199219 66.933594 97.746094 67.207031 97.304688 67.5 C 96.859375 67.796875 96.433594 68.113281 96.023438 68.449219 C 95.613281 68.789062 95.21875 69.144531 94.84375 69.519531 C 93.316406 71.039062 92.140625 72.792969 91.316406 74.78125 C 90.492188 76.769531 90.082031 78.84375 90.089844 80.996094 L 80.636719 80.996094 C 80.628906 77.527344 81.300781 74.191406 82.65625 70.996094 C 83.957031 67.917969 85.789062 65.195312 88.160156 62.835938 C 90.519531 60.46875 93.242188 58.632812 96.320312 57.332031 C 99.515625 55.976562 102.847656 55.304688 106.320312 55.3125 Z M 106.320312 55.3125 " fill-opacity="1" fill-rule="nonzero"/></g><g clip-path="url(#4ce50a5666)"><path fill="#6b4226" d="M 245.9375 120.046875 C 254.652344 115.308594 260.640625 105.558594 260.640625 95.019531 C 260.640625 75.546875 246.285156 63.453125 223.179688 63.453125 L 175.503906 63.453125 C 173.988281 63.453125 172.753906 64.6875 172.753906 66.203125 L 172.753906 181.703125 C 172.753906 183.21875 173.988281 184.453125 175.503906 184.453125 L 224.285156 184.453125 C 250.171875 184.453125 266.253906 170.824219 266.253906 148.882812 C 266.253906 135.171875 258.328125 124.269531 245.9375 120.046875 Z M 197.503906 82.703125 L 216.742188 82.703125 C 228.90625 82.703125 236.003906 88.777344 236.003906 99.203125 C 236.003906 109.875 228.4375 115.703125 214.167969 115.703125 L 197.503906 115.703125 Z M 218.484375 165.203125 L 197.503906 165.203125 L 197.503906 132.203125 L 217.695312 132.203125 C 233.277344 132.203125 241.503906 137.839844 241.503906 148.519531 C 241.503906 159.417969 233.515625 165.203125 218.484375 165.203125 Z M 218.484375 165.203125 " fill-opacity="1" fill-rule="nonzero"/></g><g clip-path="url(#82f0737b59)"><path fill="#005f73" d="M 320.84375 127.988281 C 319.925781 127.800781 318.308594 128.378906 310.765625 129.53125 C 302.765625 130.75 296.136719 129.105469 303.570312 125.953125 C 307.84375 124.144531 318.074219 123.261719 321.738281 122.269531 C 322.035156 120.890625 325.953125 94.460938 330.625 86.816406 C 331.148438 85.964844 331.882812 85.511719 332.855469 85.472656 C 334.515625 85.40625 336.007812 85.382812 336.273438 86.976562 C 337.480469 94.308594 335.078125 109.496094 333.648438 120.074219 C 334.058594 120.308594 333.21875 120.492188 348.269531 118.257812 C 349.90625 118.011719 351.695312 117.289062 353.933594 117.921875 C 354.597656 118.109375 355.378906 118.359375 355.496094 119.011719 C 356.035156 122.027344 334.566406 125.421875 332.863281 125.871094 C 332.550781 126.777344 327.5 162.273438 329.207031 171.796875 C 329.75 174.824219 330.5 175.859375 330.714844 176.289062 C 331.058594 176.207031 331.339844 176.179688 331.589844 176.074219 C 342.949219 171.15625 341.472656 167.058594 345.855469 166.988281 C 346.820312 166.976562 347.777344 166.976562 348.675781 167.386719 C 349.472656 167.746094 349.675781 168.109375 349.496094 168.976562 C 347.703125 177.5625 334.339844 184.082031 324.957031 181.390625 C 314.519531 178.390625 316.421875 164.460938 320.839844 129.148438 C 320.882812 128.785156 320.84375 128.410156 320.84375 127.988281 " fill-opacity="1" fill-rule="nonzero"/></g><g clip-path="url(#7b52c0329e)"><path fill="#005f73" d="M 322.046875 159.667969 C 321.640625 159.667969 321.238281 159.714844 320.878906 159.804688 C 319.753906 159.984375 319.035156 160.566406 318.585938 161.644531 C 316.878906 166.046875 315.128906 170.628906 312.476562 174.582031 C 308.167969 180.960938 302.058594 183.789062 296.53125 177.367188 C 293.792969 174.175781 291.859375 170.539062 290.335938 166.632812 C 289.886719 165.507812 290.066406 164.835938 290.964844 164.027344 C 296.578125 158.949219 301.789062 153.425781 305.472656 146.734375 C 307.359375 143.320312 308.929688 139.769531 309.289062 135.773438 C 310.097656 127.644531 302.820312 124.320312 295.679688 124.09375 C 290.964844 123.960938 285.796875 124.902344 281.621094 127.238281 C 266.125 135.953125 264.507812 157.917969 272.097656 172.246094 C 272.1875 172.378906 272.234375 172.558594 272.324219 172.738281 C 271.964844 173.007812 271.648438 173.234375 271.335938 173.457031 C 267.785156 176.109375 264.101562 178.625 260.6875 181.5 C 256.378906 185.09375 252.378906 190.03125 251.210938 195.601562 C 250.179688 200.453125 252.066406 209.347656 258.710938 208.3125 C 260.105469 208.089844 260.238281 207.730469 259.65625 206.472656 C 258.261719 203.554688 257.320312 200.542969 257.859375 197.265625 C 258.261719 194.703125 259.429688 192.457031 260.734375 190.257812 C 264.238281 184.507812 269.449219 180.421875 274.925781 176.421875 C 275.332031 176.871094 275.601562 177.320312 276.003906 177.679688 C 277.890625 179.433594 279.597656 181.410156 281.710938 182.890625 C 288.539062 187.695312 296.261719 188.910156 304.4375 187.964844 C 309.109375 187.429688 313.421875 185.992188 316.878906 182.667969 C 322.40625 177.410156 325.234375 170.898438 325.773438 163.351562 C 326 160.523438 325.101562 159.625 322.046875 159.667969 Z M 288.628906 159.535156 C 288.492188 159.535156 288.359375 159.488281 288.269531 159.488281 C 288.269531 159.488281 282.382812 131.238281 296.21875 129.035156 C 296.21875 129.035156 308.210938 133.484375 296.53125 149.921875 C 295.410156 151.765625 294.152344 153.515625 292.714844 155.175781 C 291.636719 156.480469 290.425781 157.691406 289.300781 158.90625 C 289.121094 159.175781 288.898438 159.355469 288.628906 159.535156 Z M 288.628906 159.535156 " fill-opacity="1" fill-rule="nonzero"/></g><g clip-path="url(#2ab90465fe)"><path fill="#e48a33" d="M 364.679688 119.382812 C 345.789062 119.382812 330.484375 134.691406 330.484375 153.578125 C 330.484375 172.464844 345.789062 187.773438 364.679688 187.773438 C 383.566406 187.773438 398.875 172.464844 398.875 153.578125 C 398.875 134.691406 383.566406 119.382812 364.679688 119.382812 Z M 364.679688 172.5625 C 354.1875 172.5625 345.695312 164.054688 345.695312 153.578125 C 345.695312 143.101562 354.203125 134.59375 364.679688 134.59375 C 375.15625 134.59375 383.664062 143.101562 383.664062 153.578125 C 383.664062 164.054688 375.167969 172.5625 364.679688 172.5625 Z M 364.679688 172.5625 " fill-opacity="1" fill-rule="nonzero"/></g></svg>